<svg width="13" height="14" viewBox="0 0 13 14" fill="none" xmlns="http://www.w3.org/2000/svg">
  <path fill-rule="evenodd" clip-rule="evenodd" d="M0.5 4.01622C0.5 2.24369 1.93692 0.806763 3.70946 0.806763H9.79054C11.5631 0.806763 13 2.24369 13 4.01622V10.0973C13 11.8698 11.5631 13.3068 9.79054 13.3068H3.70946C1.93692 13.3068 0.5 11.8698 0.5 10.0973V4.01622ZM3.70946 1.82028C2.49667 1.82028 1.51351 2.80343 1.51351 4.01622V10.0973C1.51351 11.3101 2.49667 12.2932 3.70946 12.2932H9.79054C11.0033 12.2932 11.9865 11.3101 11.9865 10.0973V4.01622C11.9865 2.80343 11.0033 1.82028 9.79054 1.82028H3.70946Z" fill="white"/>
  <path fill-rule="evenodd" clip-rule="evenodd" d="M11.3167 4.88097C11.5223 5.07081 11.5352 5.39141 11.3453 5.59706L7.29128 9.98896C7.19773 10.0903 7.06693 10.1491 6.92904 10.1519C6.79116 10.1546 6.6581 10.1011 6.56058 10.0036L4.87139 8.31438C4.67349 8.11647 4.67349 7.79561 4.87139 7.59771C5.06929 7.39981 5.39015 7.39981 5.58805 7.59771L6.90429 8.91395L10.6006 4.90962C10.7904 4.70397 11.111 4.69114 11.3167 4.88097ZM8.62859 4.89501C8.8265 5.09291 8.8265 5.41377 8.62859 5.61167L6.93941 7.30086C6.7415 7.49876 6.42064 7.49876 6.22274 7.30086C6.02484 7.10296 6.02484 6.7821 6.22274 6.5842L7.91193 4.89501C8.10983 4.69711 8.43069 4.69711 8.62859 4.89501ZM2.16869 7.59771C2.36659 7.39981 2.68745 7.39981 2.88535 7.59771L4.57454 9.2869C4.77244 9.4848 4.77244 9.80566 4.57454 10.0036C4.37664 10.2015 4.05578 10.2015 3.85788 10.0036L2.16869 8.31438C1.97079 8.11647 1.97079 7.79561 2.16869 7.59771Z" fill="white"/>
</svg>
