<svg width="28" height="28" viewBox="0 0 28 28" fill="none" xmlns="http://www.w3.org/2000/svg">
<path d="M9.49233 14.0539C9.49233 11.5353 11.5347 9.49308 14.0548 9.49308C16.5749 9.49308 18.6183 11.5353 18.6183 14.0539C18.6183 16.5725 16.5749 18.6147 14.0548 18.6147C11.5347 18.6147 9.49233 16.5725 9.49233 14.0539ZM7.02536 14.0539C7.02536 17.9339 10.1724 21.0791 14.0548 21.0791C17.9371 21.0791 21.0842 17.9339 21.0842 14.0539C21.0842 10.1739 17.9371 7.02869 14.0548 7.02869C10.1724 7.02869 7.02536 10.1739 7.02536 14.0539ZM19.7197 6.75014C19.7196 7.07485 19.8158 7.39231 19.9962 7.66236C20.1766 7.93242 20.4331 8.14295 20.7332 8.26733C21.0333 8.39171 21.3636 8.42436 21.6823 8.36114C22.001 8.29792 22.2938 8.14167 22.5236 7.91216C22.7534 7.68265 22.91 7.39018 22.9735 7.07173C23.037 6.75329 23.0046 6.42317 22.8804 6.12313C22.7562 5.82309 22.5458 5.56659 22.2757 5.38609C22.0056 5.20558 21.688 5.10917 21.3631 5.10904H21.3625C20.927 5.10924 20.5093 5.28219 20.2013 5.58989C19.8933 5.89759 19.7201 6.31489 19.7197 6.75014V6.75014ZM8.5242 25.1902C7.18953 25.1294 6.46409 24.9072 5.982 24.7195C5.34286 24.4709 4.88684 24.1747 4.40737 23.6962C3.92791 23.2177 3.63112 22.7623 3.3834 22.1236C3.19546 21.642 2.97315 20.9168 2.91247 19.5829C2.84611 18.1408 2.83286 17.7076 2.83286 14.054C2.83286 10.4004 2.8472 9.96843 2.91247 8.5251C2.97326 7.19123 3.19722 6.46743 3.3834 5.98442C3.63222 5.34567 3.92857 4.88992 4.40737 4.41074C4.88618 3.93157 5.34177 3.63496 5.982 3.38738C6.46387 3.19956 7.18953 2.97738 8.5242 2.91674C9.96719 2.85041 10.4007 2.83717 14.0548 2.83717C17.7089 2.83717 18.1428 2.85151 19.587 2.91674C20.9217 2.97748 21.6459 3.20131 22.1292 3.38738C22.7683 3.63496 23.2244 3.93222 23.7038 4.41074C24.1833 4.88926 24.479 5.34567 24.7278 5.98442C24.9157 6.46601 25.138 7.19123 25.1987 8.5251C25.2651 9.96843 25.2783 10.4004 25.2783 14.054C25.2783 17.7076 25.2651 18.1396 25.1987 19.5829C25.1379 20.9168 24.9145 21.6418 24.7278 22.1236C24.479 22.7623 24.1826 23.2181 23.7038 23.6962C23.225 24.1742 22.7683 24.4709 22.1292 24.7195C21.6473 24.9074 20.9217 25.1295 19.587 25.1902C18.144 25.2565 17.7105 25.2697 14.0548 25.2697C10.399 25.2697 9.96675 25.2565 8.5242 25.1902V25.1902ZM8.41085 0.455413C6.95352 0.52174 5.95769 0.752681 5.08802 1.09088C4.18735 1.44014 3.4249 1.9087 2.663 2.66894C1.90109 3.42919 1.43346 4.19239 1.08399 5.09251C0.745585 5.9622 0.514505 6.95689 0.448138 8.41335C0.380676 9.87211 0.365234 10.3385 0.365234 14.0539C0.365234 17.7693 0.380676 18.2357 0.448138 19.6944C0.514505 21.151 0.745585 22.1456 1.08399 23.0153C1.43346 23.9149 1.9012 24.6789 2.663 25.4388C3.42479 26.1988 4.18735 26.6667 5.08802 27.0169C5.95933 27.3551 6.95352 27.586 8.41085 27.6524C9.87125 27.7187 10.3371 27.7352 14.0548 27.7352C17.7724 27.7352 18.2391 27.7198 19.6987 27.6524C21.1561 27.586 22.1513 27.3551 23.0215 27.0169C23.9217 26.6667 24.6847 26.1991 25.4466 25.4388C26.2085 24.6786 26.6751 23.9149 27.0256 23.0153C27.364 22.1456 27.5961 21.1509 27.6614 19.6944C27.7278 18.2346 27.7432 17.7693 27.7432 14.0539C27.7432 10.3385 27.7278 9.87211 27.6614 8.41335C27.595 6.95678 27.364 5.96166 27.0256 5.09251C26.6751 4.19293 26.2073 3.43039 25.4466 2.66894C24.6859 1.90749 23.9217 1.44014 23.0226 1.09088C22.1513 0.752681 21.156 0.520645 19.6998 0.455413C18.2402 0.389086 17.7735 0.372559 14.0559 0.372559C10.3382 0.372559 9.87125 0.387991 8.41085 0.455413Z" fill="url(#paint0_radial_395_218)"/>
<path d="M9.49233 14.0539C9.49233 11.5353 11.5347 9.49308 14.0548 9.49308C16.5749 9.49308 18.6183 11.5353 18.6183 14.0539C18.6183 16.5725 16.5749 18.6147 14.0548 18.6147C11.5347 18.6147 9.49233 16.5725 9.49233 14.0539ZM7.02536 14.0539C7.02536 17.9339 10.1724 21.0791 14.0548 21.0791C17.9371 21.0791 21.0842 17.9339 21.0842 14.0539C21.0842 10.1739 17.9371 7.02869 14.0548 7.02869C10.1724 7.02869 7.02536 10.1739 7.02536 14.0539ZM19.7197 6.75014C19.7196 7.07485 19.8158 7.39231 19.9962 7.66236C20.1766 7.93242 20.4331 8.14295 20.7332 8.26733C21.0333 8.39171 21.3636 8.42436 21.6823 8.36114C22.001 8.29792 22.2938 8.14167 22.5236 7.91216C22.7534 7.68265 22.91 7.39018 22.9735 7.07173C23.037 6.75329 23.0046 6.42317 22.8804 6.12313C22.7562 5.82309 22.5458 5.56659 22.2757 5.38609C22.0056 5.20558 21.688 5.10917 21.3631 5.10904H21.3625C20.927 5.10924 20.5093 5.28219 20.2013 5.58989C19.8933 5.89759 19.7201 6.31489 19.7197 6.75014V6.75014ZM8.5242 25.1902C7.18953 25.1294 6.46409 24.9072 5.982 24.7195C5.34286 24.4709 4.88684 24.1747 4.40737 23.6962C3.92791 23.2177 3.63112 22.7623 3.3834 22.1236C3.19546 21.642 2.97315 20.9168 2.91247 19.5829C2.84611 18.1408 2.83286 17.7076 2.83286 14.054C2.83286 10.4004 2.8472 9.96843 2.91247 8.5251C2.97326 7.19123 3.19722 6.46743 3.3834 5.98442C3.63222 5.34567 3.92857 4.88992 4.40737 4.41074C4.88618 3.93157 5.34177 3.63496 5.982 3.38738C6.46387 3.19956 7.18953 2.97738 8.5242 2.91674C9.96719 2.85041 10.4007 2.83717 14.0548 2.83717C17.7089 2.83717 18.1428 2.85151 19.587 2.91674C20.9217 2.97748 21.6459 3.20131 22.1292 3.38738C22.7683 3.63496 23.2244 3.93222 23.7038 4.41074C24.1833 4.88926 24.479 5.34567 24.7278 5.98442C24.9157 6.46601 25.138 7.19123 25.1987 8.5251C25.2651 9.96843 25.2783 10.4004 25.2783 14.054C25.2783 17.7076 25.2651 18.1396 25.1987 19.5829C25.1379 20.9168 24.9145 21.6418 24.7278 22.1236C24.479 22.7623 24.1826 23.2181 23.7038 23.6962C23.225 24.1742 22.7683 24.4709 22.1292 24.7195C21.6473 24.9074 20.9217 25.1295 19.587 25.1902C18.144 25.2565 17.7105 25.2697 14.0548 25.2697C10.399 25.2697 9.96675 25.2565 8.5242 25.1902V25.1902ZM8.41085 0.455413C6.95352 0.52174 5.95769 0.752681 5.08802 1.09088C4.18735 1.44014 3.4249 1.9087 2.663 2.66894C1.90109 3.42919 1.43346 4.19239 1.08399 5.09251C0.745585 5.9622 0.514505 6.95689 0.448138 8.41335C0.380676 9.87211 0.365234 10.3385 0.365234 14.0539C0.365234 17.7693 0.380676 18.2357 0.448138 19.6944C0.514505 21.151 0.745585 22.1456 1.08399 23.0153C1.43346 23.9149 1.9012 24.6789 2.663 25.4388C3.42479 26.1988 4.18735 26.6667 5.08802 27.0169C5.95933 27.3551 6.95352 27.586 8.41085 27.6524C9.87125 27.7187 10.3371 27.7352 14.0548 27.7352C17.7724 27.7352 18.2391 27.7198 19.6987 27.6524C21.1561 27.586 22.1513 27.3551 23.0215 27.0169C23.9217 26.6667 24.6847 26.1991 25.4466 25.4388C26.2085 24.6786 26.6751 23.9149 27.0256 23.0153C27.364 22.1456 27.5961 21.1509 27.6614 19.6944C27.7278 18.2346 27.7432 17.7693 27.7432 14.0539C27.7432 10.3385 27.7278 9.87211 27.6614 8.41335C27.595 6.95678 27.364 5.96166 27.0256 5.09251C26.6751 4.19293 26.2073 3.43039 25.4466 2.66894C24.6859 1.90749 23.9217 1.44014 23.0226 1.09088C22.1513 0.752681 21.156 0.520645 19.6998 0.455413C18.2402 0.389086 17.7735 0.372559 14.0559 0.372559C10.3382 0.372559 9.87125 0.387991 8.41085 0.455413Z" fill="url(#paint1_radial_395_218)"/>
<defs>
<radialGradient id="paint0_radial_395_218" cx="0" cy="0" r="1" gradientUnits="userSpaceOnUse" gradientTransform="translate(4.00271 27.8645) scale(35.7411 35.7197)">
<stop offset="0.09" stop-color="#FA8F21"/>
<stop offset="0.78" stop-color="#D82D7E"/>
</radialGradient>
<radialGradient id="paint1_radial_395_218" cx="0" cy="0" r="1" gradientUnits="userSpaceOnUse" gradientTransform="translate(16.9694 29.0903) scale(28.1689 28.152)">
<stop offset="0.64" stop-color="#8C3AAA" stop-opacity="0"/>
<stop offset="1" stop-color="#8C3AAA"/>
</radialGradient>
</defs>
</svg>
