<svg width="28" height="28" viewBox="0 0 28 28" fill="none" xmlns="http://www.w3.org/2000/svg">
<path d="M0.492188 2.45343C0.492188 1.37088 1.39848 0.492188 2.51567 0.492188H25.8478C26.9654 0.492188 27.8713 1.37088 27.8713 2.45343V25.9104C27.8713 26.9932 26.9654 27.8713 25.8478 27.8713H2.51567C1.39859 27.8713 0.492188 26.9933 0.492188 25.9107V2.45311V2.45343Z" fill="#006699"/>
<path d="M8.81215 23.4053V11.0791H4.71512V23.4053H8.81258H8.81215ZM6.76449 9.39647C8.19291 9.39647 9.0822 8.44997 9.0822 7.26711C9.05546 6.05729 8.19291 5.13721 6.79166 5.13721C5.38944 5.13721 4.47363 6.05729 4.47363 7.267C4.47363 8.44986 5.3626 9.39637 6.73765 9.39637H6.76417L6.76449 9.39647ZM11.0799 23.4053H15.1766V16.5225C15.1766 16.1546 15.2033 15.7857 15.3116 15.523C15.6076 14.7866 16.2817 14.0244 17.4138 14.0244C18.8959 14.0244 19.4891 15.1546 19.4891 16.8118V23.4053H23.5857V16.3378C23.5857 12.5519 21.5648 10.7901 18.8694 10.7901C16.6595 10.7901 15.6889 12.0253 15.1497 12.8666H15.1769V11.0795H11.0801C11.1336 12.2359 11.0798 23.4057 11.0798 23.4057L11.0799 23.4053Z" fill="white"/>
</svg>
