<svg width="29" height="21" viewBox="0 0 29 21" fill="none" xmlns="http://www.w3.org/2000/svg">
<path d="M27.99 3.16167C27.6628 1.93176 26.6951 0.961493 25.4637 0.628962C23.2373 0.0322268 14.3046 0.0322266 14.3046 0.0322266C14.3046 0.0322266 5.37633 0.0322268 3.1454 0.628962C1.91862 0.956938 0.950827 1.9272 0.619142 3.16167C0.0239258 5.39373 0.0239258 10.0537 0.0239258 10.0537C0.0239258 10.0537 0.0239258 14.7137 0.619142 16.9458C0.946283 18.1757 1.91408 19.146 3.1454 19.4785C5.37633 20.0752 14.3046 20.0752 14.3046 20.0752C14.3046 20.0752 23.2373 20.0752 25.4637 19.4785C26.6905 19.1505 27.6583 18.1803 27.99 16.9458C28.5852 14.7137 28.5852 10.0537 28.5852 10.0537C28.5852 10.0537 28.5852 5.39373 27.99 3.16167Z" fill="#FF3000"/>
<path d="M11.4512 14.3493L18.8709 10.0537L11.4512 5.75815V14.3493Z" fill="white"/>
</svg>
