<?xml version="1.0" standalone="no"?>
<!DOCTYPE svg PUBLIC "-//W3C//DTD SVG 20010904//EN"
 "http://www.w3.org/TR/2001/REC-SVG-20010904/DTD/svg10.dtd">
<svg version="1.0" xmlns="http://www.w3.org/2000/svg"
 width="1505.000000pt" height="1505.000000pt" viewBox="0 0 1505.000000 1505.000000"
 preserveAspectRatio="xMidYMid meet">
<metadata>
Created by potrace 1.14, written by Peter Selinger 2001-2017
</metadata>
<g transform="translate(0.000000,1505.000000) scale(0.100000,-0.100000)"
fill="#000000" stroke="none">
<path d="M6875 13714 c-22 -2 -98 -9 -170 -14 -780 -65 -1624 -319 -2325 -700
-832 -452 -1532 -1025 -2055 -1680 -665 -834 -1072 -1820 -1219 -2950 -45
-346 -51 -462 -81 -1395 -2 -88 -8 -425 -11 -750 -8 -699 21 -3769 37 -3893
53 -435 374 -826 784 -955 695 -218 1324 70 1584 725 16 40 52 141 81 223 139
397 332 750 586 1070 119 150 461 489 609 603 499 387 1029 620 1675 736 418
74 534 78 2670 74 1825 -3 1835 -3 1870 -23 19 -12 43 -36 55 -55 20 -35 20
-51 25 -1205 l6 -1170 26 -105 c43 -175 109 -316 211 -454 185 -248 452 -412
772 -472 118 -22 347 -22 472 0 496 89 861 465 961 990 16 85 17 272 16 2816
-1 2980 1 2847 -59 3268 -143 990 -573 2016 -1190 2837 -225 300 -557 661
-834 909 -903 807 -2053 1345 -3241 1515 -317 46 -415 53 -820 56 -217 1 -413
1 -435 -1z m702 -2485 c768 -63 1426 -316 1988 -765 148 -118 448 -420 571
-574 481 -603 733 -1172 829 -1870 22 -157 32 -604 15 -664 -15 -54 -52 -90
-105 -105 -28 -8 -660 -11 -2150 -11 -1332 0 -2158 -4 -2240 -10 -730 -57
-1371 -226 -2044 -539 -279 -130 -672 -351 -779 -437 -29 -24 -62 -46 -73 -49
-30 -10 -67 2 -80 27 -9 16 -11 196 -10 677 2 813 14 1032 72 1341 128 672
456 1300 950 1815 649 675 1494 1086 2404 1168 94 9 535 6 652 -4z"/>
</g>
</svg>
